<svg width="24" height="24" viewBox="0 0 24 24" fill="none" xmlns="http://www.w3.org/2000/svg">
<g clip-path="url(#clip0_21_2492)">
<path d="M12 24C18.6274 24 24 18.6274 24 12C24 5.37258 18.6274 0 12 0C5.37258 0 0 5.37258 0 12C0 18.6274 5.37258 24 12 24Z" fill="#F7931A"/>
<path d="M17.3919 10.515C17.6274 8.943 16.4296 8.09775 14.7931 7.53375L15.3241 5.40375L14.0281 5.08125L13.5106 7.155C13.1701 7.0695 12.8206 6.99 12.4719 6.9105L12.9931 4.82325L11.6971 4.5L11.1661 6.62925C10.8841 6.56475 10.6066 6.50175 10.3381 6.43425L10.3396 6.4275L8.55164 5.98125L8.20664 7.36575C8.20664 7.36575 9.16889 7.58625 9.14864 7.59975C9.67364 7.731 9.76814 8.07825 9.75239 8.35425L9.14789 10.7805C9.18389 10.7895 9.23039 10.803 9.28289 10.8232L9.14564 10.7895L8.29814 14.1885C8.23364 14.3475 8.07089 14.5867 7.70339 14.496C7.71689 14.5147 6.76139 14.2612 6.76139 14.2612L6.11789 15.7448L7.80539 16.1655C8.11889 16.2443 8.42639 16.3267 8.72864 16.404L8.19239 18.558L9.48764 18.8805L10.0186 16.7505C10.3726 16.8457 10.7161 16.9342 11.0521 17.0182L10.5226 19.1392L11.8186 19.4618L12.3549 17.3123C14.5659 17.7308 16.2279 17.562 16.9276 15.5625C17.4916 13.953 16.8999 13.0238 15.7366 12.4185C16.5841 12.2235 17.2216 11.6663 17.3919 10.515ZM14.4294 14.6685C14.0296 16.2788 11.3184 15.408 10.4394 15.1898L11.1519 12.336C12.0309 12.5557 14.8486 12.99 14.4294 14.6685ZM14.8306 10.4918C14.4654 11.9565 12.2094 11.2118 11.4781 11.0295L12.1231 8.442C12.8544 8.62425 15.2116 8.964 14.8306 10.4918Z" fill="white"/>
</g>
<defs>
<clipPath id="clip0_21_2492">
<rect width="24" height="24" fill="white"/>
</clipPath>
</defs>
</svg>
