<svg width="12" height="7" viewBox="0 0 12 7" fill="none" xmlns="http://www.w3.org/2000/svg">
<path d="M2.33083 6.83083C2.27535 6.88394 2.20993 6.92557 2.13833 6.95333C1.99631 7.01168 1.83702 7.01168 1.695 6.95333C1.62339 6.92557 1.55797 6.88394 1.5025 6.83083L0.33583 5.66417C0.225986 5.55432 0.164276 5.40534 0.164276 5.25C0.164276 5.09466 0.225986 4.94568 0.33583 4.83583C0.445673 4.72599 0.594654 4.66428 0.749996 4.66428C0.905339 4.66428 1.05432 4.72599 1.16416 4.83583L1.33333 5.01083V0.583333C1.33333 0.428624 1.39479 0.280251 1.50418 0.170854C1.61358 0.0614581 1.76195 0 1.91666 0C2.07137 0 2.21975 0.0614581 2.32914 0.170854C2.43854 0.280251 2.5 0.428624 2.5 0.583333V5.01083L2.66916 4.83583C2.72339 4.78116 2.78791 4.73776 2.85899 4.70815C2.93008 4.67853 3.00632 4.66328 3.08333 4.66328C3.16034 4.66328 3.23658 4.67853 3.30767 4.70815C3.37875 4.73776 3.44327 4.78116 3.4975 4.83583C3.55217 4.89006 3.59557 4.95458 3.62518 5.02566C3.6548 5.09675 3.67005 5.17299 3.67005 5.25C3.67005 5.32701 3.6548 5.40325 3.62518 5.47434C3.59557 5.54542 3.55217 5.60994 3.4975 5.66417L2.33083 6.83083ZM5.41666 5.83333H11.25C11.4047 5.83333 11.5531 5.89479 11.6625 6.00419C11.7719 6.11358 11.8333 6.26196 11.8333 6.41667C11.8333 6.57138 11.7719 6.71975 11.6625 6.82915C11.5531 6.93854 11.4047 7 11.25 7H5.41666C5.26195 7 5.11358 6.93854 5.00418 6.82915C4.89479 6.71975 4.83333 6.57138 4.83333 6.41667C4.83333 6.26196 4.89479 6.11358 5.00418 6.00419C5.11358 5.89479 5.26195 5.83333 5.41666 5.83333ZM11.25 1.16667H5.41666C5.26195 1.16667 5.11358 1.10521 5.00418 0.995813C4.89479 0.886417 4.83333 0.738043 4.83333 0.583333C4.83333 0.428624 4.89479 0.280251 5.00418 0.170854C5.11358 0.0614581 5.26195 0 5.41666 0H11.25C11.4047 0 11.5531 0.0614581 11.6625 0.170854C11.7719 0.280251 11.8333 0.428624 11.8333 0.583333C11.8333 0.738043 11.7719 0.886417 11.6625 0.995813C11.5531 1.10521 11.4047 1.16667 11.25 1.16667ZM11.25 4.08333H5.41666C5.26195 4.08333 5.11358 4.02188 5.00418 3.91248C4.89479 3.80308 4.83333 3.65471 4.83333 3.5C4.83333 3.34529 4.89479 3.19692 5.00418 3.08752C5.11358 2.97813 5.26195 2.91667 5.41666 2.91667H11.25C11.4047 2.91667 11.5531 2.97813 11.6625 3.08752C11.7719 3.19692 11.8333 3.34529 11.8333 3.5C11.8333 3.65471 11.7719 3.80308 11.6625 3.91248C11.5531 4.02188 11.4047 4.08333 11.25 4.08333Z" fill="black"/>
</svg>
