<svg width="24" height="24" viewBox="0 0 24 24" fill="none" xmlns="http://www.w3.org/2000/svg">
<g clip-path="url(#clip0_21_2474)">
<path d="M12 0C5.36667 0 0 5.36667 0 12C0 18.6333 5.36667 24 12 24C18.6333 24 24 18.6333 24 12C24 5.36667 18.6333 0 12 0Z" fill="#003399"/>
<path d="M12 3.81668L11.75 4.65001L10.8833 4.63335L11.6 5.13335L11.3167 5.96668L12.0167 5.43335L12.7167 5.96668L12.4333 5.13335L13.15 4.63335L12.2833 4.65001L12 3.81668Z" fill="#FFCC00"/>
<path d="M12.25 18.8833L12 18.05L11.75 18.8833L10.8833 18.8667L11.6 19.3667L11.3167 20.2L12.0167 19.6667L12.7167 20.2L12.4333 19.3667L13.15 18.8667L12.25 18.8833Z" fill="#FFCC00"/>
<path d="M4.88333 12.5333L5.58333 13.0667L5.3 12.2333L6.01667 11.7333L5.15 11.75L4.9 10.9167L4.65 11.75L3.76667 11.7333L4.48333 12.2333L4.2 13.0667L4.88333 12.5333Z" fill="#FFCC00"/>
<path d="M8.53333 4.81668L8.28333 5.65001L7.41667 5.63335L8.13333 6.13335L7.83333 6.96668L8.53333 6.43335L9.23333 6.96668L8.95 6.15001L9.66667 5.65001L8.78333 5.66668L8.53333 4.81668Z" fill="#FFCC00"/>
<path d="M5.48333 8.78334L5.2 9.61667L5.9 9.08334L6.6 9.61667L6.31667 8.78334L7.03333 8.28334L6.15 8.30001L5.9 7.46667L5.65 8.30001L4.76667 8.28334L5.48333 8.78334Z" fill="#FFCC00"/>
<path d="M6.15 15.4333L5.9 14.6L5.65 15.4333L4.76667 15.4167L5.48333 15.9167L5.2 16.75L5.9 16.2167L6.6 16.75L6.31667 15.9167L7.03333 15.4167L6.15 15.4333Z" fill="#FFCC00"/>
<path d="M8.71667 17.8167L8.46667 16.9833L8.21667 17.8167L7.33333 17.8L8.05 18.3L7.76667 19.1167L8.46667 18.5833L9.16667 19.1167L8.88333 18.3L9.6 17.8L8.71667 17.8167Z" fill="#FFCC00"/>
<path d="M20.2333 11.75L19.35 11.7667L19.1 10.9333L18.85 11.7667L17.9833 11.75L18.7 12.25L18.4167 13.0833L19.1167 12.55L19.8167 13.0833L19.5333 12.25L20.2333 11.75Z" fill="#FFCC00"/>
<path d="M15.0667 6.13335L14.7833 6.95001L15.4833 6.41668L16.1833 6.95001L15.9 6.13335L16.6167 5.63334L15.7167 5.66668L15.4667 4.83334L15.2167 5.66668L14.3333 5.65001L15.0667 6.13335Z" fill="#FFCC00"/>
<path d="M17.7 8.78334L17.4167 9.61667L18.1167 9.08334L18.8167 9.61667L18.5333 8.78334L19.25 8.28334L18.3667 8.30001L18.1167 7.46667L17.8667 8.30001L16.9833 8.28334L17.7 8.78334Z" fill="#FFCC00"/>
<path d="M18.35 15.4333L18.1 14.6L17.85 15.4333L16.9833 15.4167L17.7 15.9167L17.4167 16.75L18.1167 16.2167L18.8167 16.75L18.5333 15.9167L19.25 15.4167L18.35 15.4333Z" fill="#FFCC00"/>
<path d="M15.7833 17.8167L15.5333 16.9833L15.2833 17.8167L14.4 17.8L15.1167 18.3L14.8333 19.1167L15.5333 18.5833L16.2333 19.1167L15.95 18.3L16.6667 17.8L15.7833 17.8167Z" fill="#FFCC00"/>
</g>
<defs>
<clipPath id="clip0_21_2474">
<rect width="24" height="24" rx="12" fill="white"/>
</clipPath>
</defs>
</svg>
