<svg width="24" height="24" viewBox="0 0 24 24" fill="none" xmlns="http://www.w3.org/2000/svg">
<g clip-path="url(#clip0_21_2482)">
<path d="M8.25 0.600006C7.11667 0.966673 6.06667 1.50001 5.11667 2.16667L8.25 5.23334V0.600006Z" fill="#012169"/>
<path d="M1.96667 5.41666C1.38333 6.28332 0.933332 7.24999 0.599998 8.24999H4.86667L1.96667 5.41666Z" fill="#012169"/>
<path d="M18.6333 2.00001C17.75 1.41667 16.7667 0.933339 15.75 0.600006V4.93334L18.6333 2.00001Z" fill="#012169"/>
<path d="M5.25 21.9167C6.16667 22.55 7.18333 23.05 8.25 23.4V18.8833L5.25 21.9167Z" fill="#012169"/>
<path d="M15.75 23.4C16.8167 23.05 17.8333 22.55 18.75 21.9167L15.75 18.9667V23.4Z" fill="#012169"/>
<path d="M21.9333 18.7333C22.55 17.8167 23.05 16.8167 23.4 15.75H18.9L21.9333 18.7333Z" fill="#012169"/>
<path d="M23.4 8.24999C23.0333 7.13332 22.5167 6.09999 21.8667 5.16666L18.8167 8.24999H23.4Z" fill="#012169"/>
<path d="M0.599998 15.75C0.949998 16.8167 1.45 17.8167 2.06666 18.7333L5.03333 15.75H0.599998Z" fill="#012169"/>
<path d="M15.75 8.25001V6.16668L19.35 2.51667C19.1167 2.33334 18.8833 2.16667 18.6333 2.00001L15.75 4.93334V0.600008C15.2667 0.433341 14.7667 0.316675 14.25 0.216675V9.75001H23.7833C23.6833 9.23334 23.55 8.73334 23.4 8.25001H18.8L21.8667 5.16668C21.4667 4.58334 21.0167 4.05001 20.5333 3.55001L15.9167 8.25001H15.75Z" fill="white"/>
<path d="M19.35 2.51666L15.75 6.16666V8.25H15.9167L20.5167 3.55C20.15 3.18333 19.7667 2.83333 19.35 2.51666Z" fill="#C8102E"/>
<path d="M15.75 15.75V15.9167L20.45 20.5167C20.8 20.1667 21.1333 19.7833 21.45 19.3833L17.7333 15.75H15.75Z" fill="#C8102E"/>
<path d="M8.25 8.25V8.13333L3.53333 3.5C3.15 3.88333 2.78333 4.3 2.46667 4.73333L6 8.25H8.25Z" fill="#C8102E"/>
<path d="M8.25 15.75H8.06667L3.43333 20.4C3.78333 20.75 4.15 21.0833 4.55 21.4L8.25 17.6667V15.75Z" fill="#C8102E"/>
<path d="M15.75 18.9667L18.75 21.9167C19.3667 21.5 19.9333 21.0333 20.45 20.5167L15.75 15.9167V15.75H17.7333L21.45 19.3833C21.6167 19.1667 21.7833 18.95 21.9333 18.7167L18.9 15.7333H23.4C23.5667 15.25 23.6833 14.75 23.7833 14.2333H14.25V23.7667C14.7667 23.6667 15.2667 23.5333 15.75 23.3833V18.9667Z" fill="white"/>
<path d="M8.25 5.23334L5.11667 2.16667C4.55 2.56668 4.01667 3.01668 3.51667 3.50001L8.23334 8.11668V8.23334H6L2.45 4.73334C2.28333 4.95001 2.11667 5.18334 1.96667 5.41668L4.85 8.25001H0.600001C0.433334 8.73334 0.316667 9.23334 0.216667 9.75001H9.75V0.216675C9.23334 0.316675 8.73333 0.450008 8.25 0.600008V5.23334Z" fill="white"/>
<path d="M5.03333 15.75L2.06667 18.7333C2.46667 19.3333 2.93333 19.8833 3.43333 20.4L8.06667 15.75H8.25V17.6833L4.55 21.4167C4.78333 21.6 5 21.7667 5.25 21.9333L8.25 18.9V23.4167C8.73333 23.5833 9.23334 23.7 9.75 23.8V14.25H0.216667C0.316667 14.7667 0.450001 15.2667 0.600001 15.75H5.03333Z" fill="white"/>
<path d="M14.25 9.75V0.216667C13.5167 0.0833333 12.7667 0 12 0C11.2333 0 10.4833 0.0833333 9.75 0.216667V9.75H0.216667C0.0833333 10.4833 0 11.2333 0 12C0 12.7667 0.0833333 13.5167 0.216667 14.25H9.75V23.7833C10.4833 23.9167 11.2333 24 12 24C12.7667 24 13.5167 23.9167 14.25 23.7833V14.25H23.7833C23.9167 13.5167 24 12.7667 24 12C24 11.2333 23.9167 10.4833 23.7833 9.75H14.25Z" fill="#C8102E"/>
</g>
<defs>
<clipPath id="clip0_21_2482">
<rect width="24" height="24" rx="12" fill="white"/>
</clipPath>
</defs>
</svg>
