<svg width="16" height="16" viewBox="0 0 16 16" fill="none" xmlns="http://www.w3.org/2000/svg">
<path d="M13.625 7.40625H4.48284L9.95472 2.65625C10.0422 2.57969 9.98909 2.4375 9.87347 2.4375H8.49065C8.42972 2.4375 8.3719 2.45937 8.32659 2.49844L2.4219 7.62187C2.36782 7.66875 2.32445 7.72671 2.29473 7.79181C2.265 7.85692 2.24962 7.92765 2.24962 7.99922C2.24962 8.07079 2.265 8.14152 2.29473 8.20663C2.32445 8.27173 2.36782 8.32968 2.4219 8.37656L8.36097 13.5312C8.3844 13.5516 8.41253 13.5625 8.44222 13.5625H9.8719C9.98753 13.5625 10.0407 13.4187 9.95315 13.3438L4.48284 8.59375H13.625C13.6938 8.59375 13.75 8.5375 13.75 8.46875V7.53125C13.75 7.4625 13.6938 7.40625 13.625 7.40625Z" fill="#565D5F"/>
</svg>
