<svg width="12" height="7" viewBox="0 0 12 7" fill="none" xmlns="http://www.w3.org/2000/svg">
<path d="M2.33083 0.169167C2.27535 0.11606 2.20993 0.07443 2.13833 0.0466666C1.99631 -0.0116772 1.83702 -0.0116772 1.695 0.0466666C1.62339 0.07443 1.55797 0.11606 1.5025 0.169167L0.33583 1.33583C0.225986 1.44568 0.164276 1.59466 0.164276 1.75C0.164276 1.90534 0.225986 2.05432 0.33583 2.16417C0.445673 2.27401 0.594654 2.33572 0.749996 2.33572C0.905339 2.33572 1.05432 2.27401 1.16416 2.16417L1.33333 1.98917V6.41667C1.33333 6.57138 1.39479 6.71975 1.50418 6.82915C1.61358 6.93854 1.76195 7 1.91666 7C2.07137 7 2.21975 6.93854 2.32914 6.82915C2.43854 6.71975 2.5 6.57138 2.5 6.41667V1.98917L2.66916 2.16417C2.72339 2.21884 2.78791 2.26224 2.85899 2.29185C2.93008 2.32147 3.00632 2.33672 3.08333 2.33672C3.16034 2.33672 3.23658 2.32147 3.30767 2.29185C3.37875 2.26224 3.44327 2.21884 3.4975 2.16417C3.55217 2.10994 3.59557 2.04542 3.62518 1.97434C3.6548 1.90325 3.67005 1.82701 3.67005 1.75C3.67005 1.67299 3.6548 1.59675 3.62518 1.52566C3.59557 1.45458 3.55217 1.39006 3.4975 1.33583L2.33083 0.169167ZM5.41666 1.16667H11.25C11.4047 1.16667 11.5531 1.10521 11.6625 0.995812C11.7719 0.886416 11.8333 0.738043 11.8333 0.583333C11.8333 0.428624 11.7719 0.280251 11.6625 0.170854C11.5531 0.0614583 11.4047 0 11.25 0H5.41666C5.26195 0 5.11358 0.0614583 5.00418 0.170854C4.89479 0.280251 4.83333 0.428624 4.83333 0.583333C4.83333 0.738043 4.89479 0.886416 5.00418 0.995812C5.11358 1.10521 5.26195 1.16667 5.41666 1.16667ZM11.25 5.83333H5.41666C5.26195 5.83333 5.11358 5.89479 5.00418 6.00419C4.89479 6.11358 4.83333 6.26196 4.83333 6.41667C4.83333 6.57138 4.89479 6.71975 5.00418 6.82915C5.11358 6.93854 5.26195 7 5.41666 7H11.25C11.4047 7 11.5531 6.93854 11.6625 6.82915C11.7719 6.71975 11.8333 6.57138 11.8333 6.41667C11.8333 6.26196 11.7719 6.11358 11.6625 6.00419C11.5531 5.89479 11.4047 5.83333 11.25 5.83333ZM11.25 2.91667H5.41666C5.26195 2.91667 5.11358 2.97812 5.00418 3.08752C4.89479 3.19692 4.83333 3.34529 4.83333 3.5C4.83333 3.65471 4.89479 3.80308 5.00418 3.91248C5.11358 4.02187 5.26195 4.08333 5.41666 4.08333H11.25C11.4047 4.08333 11.5531 4.02187 11.6625 3.91248C11.7719 3.80308 11.8333 3.65471 11.8333 3.5C11.8333 3.34529 11.7719 3.19692 11.6625 3.08752C11.5531 2.97812 11.4047 2.91667 11.25 2.91667Z" fill="black"/>
</svg>
